<?xml version="1.0" encoding="UTF-8" standalone="no"?>
<!DOCTYPE svg PUBLIC "-//W3C//DTD SVG 1.1//EN"
 "http://www.w3.org/Graphics/SVG/1.1/DTD/svg11.dtd">
<!-- Generated by graphviz version 2.38.0 (20140413.2041)
 -->
<!-- Title: G Pages: 1 -->
<svg width="278pt" height="626pt"
 viewBox="0.00 0.00 278.00 626.00" xmlns="http://www.w3.org/2000/svg" xmlns:xlink="http://www.w3.org/1999/xlink">
<g id="graph0" class="graph" transform="scale(1 1) rotate(0) translate(4 622)">
<title>G</title>
<polygon fill="white" stroke="none" points="-4,4 -4,-622 274,-622 274,4 -4,4"/>
<!-- 139901240646288 -->
<g id="node1" class="node"><title>139901240646288</title>
<polygon fill="none" stroke="black" points="13,-498.5 13,-544.5 257,-544.5 257,-498.5 13,-498.5"/>
<text text-anchor="middle" x="55.5" y="-517.8" font-family="Times,serif" font-size="14.00">lstm: LSTM</text>
<polyline fill="none" stroke="black" points="98,-498.5 98,-544.5 "/>
<text text-anchor="middle" x="125.5" y="-529.3" font-family="Times,serif" font-size="14.00">input:</text>
<polyline fill="none" stroke="black" points="98,-521.5 153,-521.5 "/>
<text text-anchor="middle" x="125.5" y="-506.3" font-family="Times,serif" font-size="14.00">output:</text>
<polyline fill="none" stroke="black" points="153,-498.5 153,-544.5 "/>
<text text-anchor="middle" x="205" y="-529.3" font-family="Times,serif" font-size="14.00">(None, 28, 28)</text>
<polyline fill="none" stroke="black" points="153,-521.5 257,-521.5 "/>
<text text-anchor="middle" x="205" y="-506.3" font-family="Times,serif" font-size="14.00">(None, 28, 128)</text>
</g>
<!-- 139901941828856 -->
<g id="node2" class="node"><title>139901941828856</title>
<polygon fill="none" stroke="black" points="0,-415.5 0,-461.5 270,-461.5 270,-415.5 0,-415.5"/>
<text text-anchor="middle" x="55.5" y="-434.8" font-family="Times,serif" font-size="14.00">dropout: Dropout</text>
<polyline fill="none" stroke="black" points="111,-415.5 111,-461.5 "/>
<text text-anchor="middle" x="138.5" y="-446.3" font-family="Times,serif" font-size="14.00">input:</text>
<polyline fill="none" stroke="black" points="111,-438.5 166,-438.5 "/>
<text text-anchor="middle" x="138.5" y="-423.3" font-family="Times,serif" font-size="14.00">output:</text>
<polyline fill="none" stroke="black" points="166,-415.5 166,-461.5 "/>
<text text-anchor="middle" x="218" y="-446.3" font-family="Times,serif" font-size="14.00">(None, 28, 128)</text>
<polyline fill="none" stroke="black" points="166,-438.5 270,-438.5 "/>
<text text-anchor="middle" x="218" y="-423.3" font-family="Times,serif" font-size="14.00">(None, 28, 128)</text>
</g>
<!-- 139901240646288&#45;&gt;139901941828856 -->
<g id="edge2" class="edge"><title>139901240646288&#45;&gt;139901941828856</title>
<path fill="none" stroke="black" d="M135,-498.366C135,-490.152 135,-480.658 135,-471.725"/>
<polygon fill="black" stroke="black" points="138.5,-471.607 135,-461.607 131.5,-471.607 138.5,-471.607"/>
</g>
<!-- 139901201619208 -->
<g id="node3" class="node"><title>139901201619208</title>
<polygon fill="none" stroke="black" points="6.5,-332.5 6.5,-378.5 263.5,-378.5 263.5,-332.5 6.5,-332.5"/>
<text text-anchor="middle" x="55.5" y="-351.8" font-family="Times,serif" font-size="14.00">lstm_1: LSTM</text>
<polyline fill="none" stroke="black" points="104.5,-332.5 104.5,-378.5 "/>
<text text-anchor="middle" x="132" y="-363.3" font-family="Times,serif" font-size="14.00">input:</text>
<polyline fill="none" stroke="black" points="104.5,-355.5 159.5,-355.5 "/>
<text text-anchor="middle" x="132" y="-340.3" font-family="Times,serif" font-size="14.00">output:</text>
<polyline fill="none" stroke="black" points="159.5,-332.5 159.5,-378.5 "/>
<text text-anchor="middle" x="211.5" y="-363.3" font-family="Times,serif" font-size="14.00">(None, 28, 128)</text>
<polyline fill="none" stroke="black" points="159.5,-355.5 263.5,-355.5 "/>
<text text-anchor="middle" x="211.5" y="-340.3" font-family="Times,serif" font-size="14.00">(None, 128)</text>
</g>
<!-- 139901941828856&#45;&gt;139901201619208 -->
<g id="edge3" class="edge"><title>139901941828856&#45;&gt;139901201619208</title>
<path fill="none" stroke="black" d="M135,-415.366C135,-407.152 135,-397.658 135,-388.725"/>
<polygon fill="black" stroke="black" points="138.5,-388.607 135,-378.607 131.5,-388.607 138.5,-388.607"/>
</g>
<!-- 139901240646064 -->
<g id="node4" class="node"><title>139901240646064</title>
<polygon fill="none" stroke="black" points="3.5,-249.5 3.5,-295.5 266.5,-295.5 266.5,-249.5 3.5,-249.5"/>
<text text-anchor="middle" x="66" y="-268.8" font-family="Times,serif" font-size="14.00">dropout_1: Dropout</text>
<polyline fill="none" stroke="black" points="128.5,-249.5 128.5,-295.5 "/>
<text text-anchor="middle" x="156" y="-280.3" font-family="Times,serif" font-size="14.00">input:</text>
<polyline fill="none" stroke="black" points="128.5,-272.5 183.5,-272.5 "/>
<text text-anchor="middle" x="156" y="-257.3" font-family="Times,serif" font-size="14.00">output:</text>
<polyline fill="none" stroke="black" points="183.5,-249.5 183.5,-295.5 "/>
<text text-anchor="middle" x="225" y="-280.3" font-family="Times,serif" font-size="14.00">(None, 128)</text>
<polyline fill="none" stroke="black" points="183.5,-272.5 266.5,-272.5 "/>
<text text-anchor="middle" x="225" y="-257.3" font-family="Times,serif" font-size="14.00">(None, 128)</text>
</g>
<!-- 139901201619208&#45;&gt;139901240646064 -->
<g id="edge4" class="edge"><title>139901201619208&#45;&gt;139901240646064</title>
<path fill="none" stroke="black" d="M135,-332.366C135,-324.152 135,-314.658 135,-305.725"/>
<polygon fill="black" stroke="black" points="138.5,-305.607 135,-295.607 131.5,-305.607 138.5,-305.607"/>
</g>
<!-- 139901199494560 -->
<g id="node5" class="node"><title>139901199494560</title>
<polygon fill="none" stroke="black" points="21.5,-166.5 21.5,-212.5 248.5,-212.5 248.5,-166.5 21.5,-166.5"/>
<text text-anchor="middle" x="66" y="-185.8" font-family="Times,serif" font-size="14.00">dense: Dense</text>
<polyline fill="none" stroke="black" points="110.5,-166.5 110.5,-212.5 "/>
<text text-anchor="middle" x="138" y="-197.3" font-family="Times,serif" font-size="14.00">input:</text>
<polyline fill="none" stroke="black" points="110.5,-189.5 165.5,-189.5 "/>
<text text-anchor="middle" x="138" y="-174.3" font-family="Times,serif" font-size="14.00">output:</text>
<polyline fill="none" stroke="black" points="165.5,-166.5 165.5,-212.5 "/>
<text text-anchor="middle" x="207" y="-197.3" font-family="Times,serif" font-size="14.00">(None, 128)</text>
<polyline fill="none" stroke="black" points="165.5,-189.5 248.5,-189.5 "/>
<text text-anchor="middle" x="207" y="-174.3" font-family="Times,serif" font-size="14.00">(None, 32)</text>
</g>
<!-- 139901240646064&#45;&gt;139901199494560 -->
<g id="edge5" class="edge"><title>139901240646064&#45;&gt;139901199494560</title>
<path fill="none" stroke="black" d="M135,-249.366C135,-241.152 135,-231.658 135,-222.725"/>
<polygon fill="black" stroke="black" points="138.5,-222.607 135,-212.607 131.5,-222.607 138.5,-222.607"/>
</g>
<!-- 139901201512040 -->
<g id="node6" class="node"><title>139901201512040</title>
<polygon fill="none" stroke="black" points="7,-83.5 7,-129.5 263,-129.5 263,-83.5 7,-83.5"/>
<text text-anchor="middle" x="69.5" y="-102.8" font-family="Times,serif" font-size="14.00">dropout_2: Dropout</text>
<polyline fill="none" stroke="black" points="132,-83.5 132,-129.5 "/>
<text text-anchor="middle" x="159.5" y="-114.3" font-family="Times,serif" font-size="14.00">input:</text>
<polyline fill="none" stroke="black" points="132,-106.5 187,-106.5 "/>
<text text-anchor="middle" x="159.5" y="-91.3" font-family="Times,serif" font-size="14.00">output:</text>
<polyline fill="none" stroke="black" points="187,-83.5 187,-129.5 "/>
<text text-anchor="middle" x="225" y="-114.3" font-family="Times,serif" font-size="14.00">(None, 32)</text>
<polyline fill="none" stroke="black" points="187,-106.5 263,-106.5 "/>
<text text-anchor="middle" x="225" y="-91.3" font-family="Times,serif" font-size="14.00">(None, 32)</text>
</g>
<!-- 139901199494560&#45;&gt;139901201512040 -->
<g id="edge6" class="edge"><title>139901199494560&#45;&gt;139901201512040</title>
<path fill="none" stroke="black" d="M135,-166.366C135,-158.152 135,-148.658 135,-139.725"/>
<polygon fill="black" stroke="black" points="138.5,-139.607 135,-129.607 131.5,-139.607 138.5,-139.607"/>
</g>
<!-- 139901198879656 -->
<g id="node7" class="node"><title>139901198879656</title>
<polygon fill="none" stroke="black" points="18.5,-0.5 18.5,-46.5 251.5,-46.5 251.5,-0.5 18.5,-0.5"/>
<text text-anchor="middle" x="69.5" y="-19.8" font-family="Times,serif" font-size="14.00">dense_1: Dense</text>
<polyline fill="none" stroke="black" points="120.5,-0.5 120.5,-46.5 "/>
<text text-anchor="middle" x="148" y="-31.3" font-family="Times,serif" font-size="14.00">input:</text>
<polyline fill="none" stroke="black" points="120.5,-23.5 175.5,-23.5 "/>
<text text-anchor="middle" x="148" y="-8.3" font-family="Times,serif" font-size="14.00">output:</text>
<polyline fill="none" stroke="black" points="175.5,-0.5 175.5,-46.5 "/>
<text text-anchor="middle" x="213.5" y="-31.3" font-family="Times,serif" font-size="14.00">(None, 32)</text>
<polyline fill="none" stroke="black" points="175.5,-23.5 251.5,-23.5 "/>
<text text-anchor="middle" x="213.5" y="-8.3" font-family="Times,serif" font-size="14.00">(None, 10)</text>
</g>
<!-- 139901201512040&#45;&gt;139901198879656 -->
<g id="edge7" class="edge"><title>139901201512040&#45;&gt;139901198879656</title>
<path fill="none" stroke="black" d="M135,-83.3664C135,-75.1516 135,-65.6579 135,-56.7252"/>
<polygon fill="black" stroke="black" points="138.5,-56.6068 135,-46.6068 131.5,-56.6069 138.5,-56.6068"/>
</g>
<!-- 139901240646736 -->
<g id="node8" class="node"><title>139901240646736</title>
<polygon fill="none" stroke="black" points="76,-581.5 76,-617.5 194,-617.5 194,-581.5 76,-581.5"/>
<text text-anchor="middle" x="135" y="-595.8" font-family="Times,serif" font-size="14.00">139901240646736</text>
</g>
<!-- 139901240646736&#45;&gt;139901240646288 -->
<g id="edge1" class="edge"><title>139901240646736&#45;&gt;139901240646288</title>
<path fill="none" stroke="black" d="M135,-581.254C135,-573.363 135,-563.749 135,-554.602"/>
<polygon fill="black" stroke="black" points="138.5,-554.591 135,-544.591 131.5,-554.591 138.5,-554.591"/>
</g>
</g>
</svg>
