<?xml version="1.0" encoding="UTF-8" standalone="no"?>
<!DOCTYPE svg PUBLIC "-//W3C//DTD SVG 1.1//EN"
 "http://www.w3.org/Graphics/SVG/1.1/DTD/svg11.dtd">
<!-- Generated by graphviz version 2.38.0 (20140413.2041)
 -->
<!-- Title: G Pages: 1 -->
<svg width="257pt" height="377pt"
 viewBox="0.00 0.00 257.00 377.00" xmlns="http://www.w3.org/2000/svg" xmlns:xlink="http://www.w3.org/1999/xlink">
<g id="graph0" class="graph" transform="scale(1 1) rotate(0) translate(4 373)">
<title>G</title>
<polygon fill="white" stroke="none" points="-4,4 -4,-373 253,-373 253,4 -4,4"/>
<!-- 139981583395360 -->
<g id="node1" class="node"><title>139981583395360</title>
<polygon fill="none" stroke="black" points="0.5,-249.5 0.5,-295.5 248.5,-295.5 248.5,-249.5 0.5,-249.5"/>
<text text-anchor="middle" x="48.5" y="-268.8" font-family="Times,serif" font-size="14.00">flatten: Flatten</text>
<polyline fill="none" stroke="black" points="96.5,-249.5 96.5,-295.5 "/>
<text text-anchor="middle" x="124" y="-280.3" font-family="Times,serif" font-size="14.00">input:</text>
<polyline fill="none" stroke="black" points="96.5,-272.5 151.5,-272.5 "/>
<text text-anchor="middle" x="124" y="-257.3" font-family="Times,serif" font-size="14.00">output:</text>
<polyline fill="none" stroke="black" points="151.5,-249.5 151.5,-295.5 "/>
<text text-anchor="middle" x="200" y="-280.3" font-family="Times,serif" font-size="14.00">(None, 28, 28)</text>
<polyline fill="none" stroke="black" points="151.5,-272.5 248.5,-272.5 "/>
<text text-anchor="middle" x="200" y="-257.3" font-family="Times,serif" font-size="14.00">(None, 784)</text>
</g>
<!-- 139981583395136 -->
<g id="node2" class="node"><title>139981583395136</title>
<polygon fill="none" stroke="black" points="11,-166.5 11,-212.5 238,-212.5 238,-166.5 11,-166.5"/>
<text text-anchor="middle" x="55.5" y="-185.8" font-family="Times,serif" font-size="14.00">dense: Dense</text>
<polyline fill="none" stroke="black" points="100,-166.5 100,-212.5 "/>
<text text-anchor="middle" x="127.5" y="-197.3" font-family="Times,serif" font-size="14.00">input:</text>
<polyline fill="none" stroke="black" points="100,-189.5 155,-189.5 "/>
<text text-anchor="middle" x="127.5" y="-174.3" font-family="Times,serif" font-size="14.00">output:</text>
<polyline fill="none" stroke="black" points="155,-166.5 155,-212.5 "/>
<text text-anchor="middle" x="196.5" y="-197.3" font-family="Times,serif" font-size="14.00">(None, 784)</text>
<polyline fill="none" stroke="black" points="155,-189.5 238,-189.5 "/>
<text text-anchor="middle" x="196.5" y="-174.3" font-family="Times,serif" font-size="14.00">(None, 128)</text>
</g>
<!-- 139981583395360&#45;&gt;139981583395136 -->
<g id="edge2" class="edge"><title>139981583395360&#45;&gt;139981583395136</title>
<path fill="none" stroke="black" d="M124.5,-249.366C124.5,-241.152 124.5,-231.658 124.5,-222.725"/>
<polygon fill="black" stroke="black" points="128,-222.607 124.5,-212.607 121,-222.607 128,-222.607"/>
</g>
<!-- 139981814073384 -->
<g id="node3" class="node"><title>139981814073384</title>
<polygon fill="none" stroke="black" points="-1.42109e-14,-83.5 -1.42109e-14,-129.5 249,-129.5 249,-83.5 -1.42109e-14,-83.5"/>
<text text-anchor="middle" x="55.5" y="-102.8" font-family="Times,serif" font-size="14.00">dropout: Dropout</text>
<polyline fill="none" stroke="black" points="111,-83.5 111,-129.5 "/>
<text text-anchor="middle" x="138.5" y="-114.3" font-family="Times,serif" font-size="14.00">input:</text>
<polyline fill="none" stroke="black" points="111,-106.5 166,-106.5 "/>
<text text-anchor="middle" x="138.5" y="-91.3" font-family="Times,serif" font-size="14.00">output:</text>
<polyline fill="none" stroke="black" points="166,-83.5 166,-129.5 "/>
<text text-anchor="middle" x="207.5" y="-114.3" font-family="Times,serif" font-size="14.00">(None, 128)</text>
<polyline fill="none" stroke="black" points="166,-106.5 249,-106.5 "/>
<text text-anchor="middle" x="207.5" y="-91.3" font-family="Times,serif" font-size="14.00">(None, 128)</text>
</g>
<!-- 139981583395136&#45;&gt;139981814073384 -->
<g id="edge3" class="edge"><title>139981583395136&#45;&gt;139981814073384</title>
<path fill="none" stroke="black" d="M124.5,-166.366C124.5,-158.152 124.5,-148.658 124.5,-139.725"/>
<polygon fill="black" stroke="black" points="128,-139.607 124.5,-129.607 121,-139.607 128,-139.607"/>
</g>
<!-- 139981544627504 -->
<g id="node4" class="node"><title>139981544627504</title>
<polygon fill="none" stroke="black" points="4.5,-0.5 4.5,-46.5 244.5,-46.5 244.5,-0.5 4.5,-0.5"/>
<text text-anchor="middle" x="55.5" y="-19.8" font-family="Times,serif" font-size="14.00">dense_1: Dense</text>
<polyline fill="none" stroke="black" points="106.5,-0.5 106.5,-46.5 "/>
<text text-anchor="middle" x="134" y="-31.3" font-family="Times,serif" font-size="14.00">input:</text>
<polyline fill="none" stroke="black" points="106.5,-23.5 161.5,-23.5 "/>
<text text-anchor="middle" x="134" y="-8.3" font-family="Times,serif" font-size="14.00">output:</text>
<polyline fill="none" stroke="black" points="161.5,-0.5 161.5,-46.5 "/>
<text text-anchor="middle" x="203" y="-31.3" font-family="Times,serif" font-size="14.00">(None, 128)</text>
<polyline fill="none" stroke="black" points="161.5,-23.5 244.5,-23.5 "/>
<text text-anchor="middle" x="203" y="-8.3" font-family="Times,serif" font-size="14.00">(None, 10)</text>
</g>
<!-- 139981814073384&#45;&gt;139981544627504 -->
<g id="edge4" class="edge"><title>139981814073384&#45;&gt;139981544627504</title>
<path fill="none" stroke="black" d="M124.5,-83.3664C124.5,-75.1516 124.5,-65.6579 124.5,-56.7252"/>
<polygon fill="black" stroke="black" points="128,-56.6068 124.5,-46.6068 121,-56.6069 128,-56.6068"/>
</g>
<!-- 139981583395416 -->
<g id="node5" class="node"><title>139981583395416</title>
<polygon fill="none" stroke="black" points="65.5,-332.5 65.5,-368.5 183.5,-368.5 183.5,-332.5 65.5,-332.5"/>
<text text-anchor="middle" x="124.5" y="-346.8" font-family="Times,serif" font-size="14.00">139981583395416</text>
</g>
<!-- 139981583395416&#45;&gt;139981583395360 -->
<g id="edge1" class="edge"><title>139981583395416&#45;&gt;139981583395360</title>
<path fill="none" stroke="black" d="M124.5,-332.254C124.5,-324.363 124.5,-314.749 124.5,-305.602"/>
<polygon fill="black" stroke="black" points="128,-305.591 124.5,-295.591 121,-305.591 128,-305.591"/>
</g>
</g>
</svg>
